<?xml version="1.0" encoding="UTF-8"?>
<svg id="FINAL" xmlns="http://www.w3.org/2000/svg" viewBox="0 0 283.46 198.43">
  <defs>
    <style>
      .cls-1 {
        fill: #e6f523;
      }

      .cls-2 {
        fill: #3c28ff;
      }

      .cls-3 {
        fill: #f984f3;
      }
    </style>
  </defs>
  <g>
    <path class="cls-2" d="M77.65,112.89c.67-1.87,1.07-3.27,1.18-4.17.11-.92.17-1.72.17-2.38s-.08-1.22-.24-1.75c-.19-.65-.38-.9-.47-1-.16-.16-.34-.26-.54-.31-.15-.04-.29-.06-.42-.06-.16,0-.32.03-.47.08-.75.27-1.35.83-1.83,1.72-.49.92-.74,1.78-.74,2.58-.31,2.04-.46,4.16-.46,6.38s.02,3.53.05,3.86c0,.1,0,.17.01.21.02,0,.03-.01.06-.02.18-.07.51-.25,1-.74,1.13-1.11,2.03-2.59,2.69-4.41Z"/>
    <path class="cls-2" d="M99.92,76.74c.16.12.5.02.68-.04,1.02-.36,1.83-1.16,2.48-2.44.67-1.31,1.01-2.38,1.01-3.18,0-1-.24-1.28-.34-1.36-.18-.13-.51-.05-.76.04-.99.35-1.77,1.11-2.4,2.31-.65,1.23-.97,2.39-.97,3.44,0,.95.23,1.18.31,1.23Z"/>
    <path class="cls-2" d="M99.92,111.64c.18-.45.3-.94.38-1.48-.03-.61-.21-.79-.26-.82-.04-.03-.11-.04-.18-.04-.11,0-.26.03-.43.09-1.06.38-1.85,1.15-2.42,2.35-.6,1.27-1,2.66-1.18,4.13,2.08-.91,3.42-2.29,4.1-4.23Z"/>
    <path class="cls-2" d="M121.24,101.73l-.19-.7-.19.84c-.89,3.85-3.28,7.19-6.65,9.26l-1.02.63,1.12-.13c2.98-.33,5.76,1.54,6.56,4.43l.19.7.19-.84c.89-3.85,3.28-7.19,6.65-9.26l1.02-.63-1.12.13c-2.98.33-5.76-1.54-6.56-4.43Z"/>
    <path class="cls-2" d="M95.82,115.89s.02-.02.03-.02c0,0-.02,0-.03,0,0,0,0,.02,0,.03Z"/>
    <path class="cls-2" d="M191.29,42.3c.78-.28,1.45-.96,2-2.02.57-1.11.86-2.45.86-3.96s-.31-2.67-.93-3.52c-.47-.66-.91-.84-1.28-.84-.18,0-.35.04-.49.1-.78.28-1.44.96-1.96,2.03-.55,1.13-.83,2.46-.83,3.96s.31,2.65.91,3.52c.68.98,1.29.91,1.74.75Z"/>
    <path class="cls-2" d="M181.79,85.34s.02-.02.03-.02c0,0,0,0,0,0,0,0-.03-.01-.04-.01,0,0,0,.02,0,.03Z"/>
    <path class="cls-2" d="M247.32,100.43c0-4.85-2.16-9.16-5.88-11.77-.34-.24-.69-.47-1.05-.68-1.33-2.44-3.07-4-4.36-4.92-2.39-1.67-5.2-2.55-8.13-2.55-1.71,0-3.41.3-5.03.88-2.36.84-4.43,2.24-6.2,4.02-.62-.07-1.24-.14-1.88-.14-2.13,0-4.26.39-6.5,1.2-.73.26-1.46.57-2.18.93-.18-.95-.43-1.83-.73-2.63.26-.81.45-1.63.62-2.45,10.86-10.86,21.16-22.25,30.55-34.43,4.99-7.3,18.89-25.44,12.74-34.03-7.65-7.37-27.07,3.72-35.21,7.64-.33.18-.65.37-.97.56-.33-.81-.68-1.59-1.07-2.33-2.18-4.08-5.75-7.12-10.06-8.57-1.89-.63-3.85-.95-5.83-.95-2.13,0-4.25.37-6.33,1.11-.93.33-1.83.71-2.68,1.14-.11,0-.21,0-.32,0-1.7,0-3.39.3-4.97.86-2.51.89-4.96,2.32-7.55,4.39-.29-.02-.58-.07-.87-.07-1.77,0-3.57.32-5.33.95-2.16.77-4.32,1.93-6.58,3.53-.39-.03-.78-.05-1.17-.05-1.55,0-3.12.25-4.76.73-1.11-1.51-2.33-2.55-3.29-3.23-2.39-1.68-5.21-2.56-8.14-2.56-1.72,0-3.44.31-5.01.88-3.7,1.31-6.78,3.87-8.91,7.41-.12.2-.23.39-.34.59-1.09,2.06-2.22,3.65-3.34,4.73-.48.46-.93.96-1.33,1.5-.63.83-1.17,1.67-1.64,2.52-.25.14-.51.26-.76.41-1.64.03-3.29.35-4.88.92-2.96,1.05-5.78,2.91-9.12,6.02-.03.03-.08.08-.12.11-.62-.06-1.23-.12-1.86-.12-2.76,0-5.64.55-8.8,1.67-1.05.37-2.01.77-2.94,1.18-1.18-1.72-2.51-2.92-3.54-3.65-2.4-1.69-5.22-2.58-8.17-2.58-1.72,0-3.44.31-5,.88-1.89.67-3.62,1.68-5.15,2.96-1.6-.53-3.3-.82-5.08-.82-2.33,0-4.78.46-7.46,1.42-5.71,2.02-10.53,5.23-14.34,9.53-4.44,5.01-6.79,11.11-6.79,17.64,0,3.02.65,5.93,1.9,8.63-.68.97-1.33,2.06-1.91,3.29-1.71,3.58-2.58,7.26-2.58,10.93,0,10.33,5.72,15.42,9.14,17.53,1.54.95,3.18,1.66,4.91,2.14.29.9.65,1.82,1.18,2.77l.19,6.03c0,6.39-.43,12.8-1.29,19.21l-.12,1c-.06.5-.09,1-.09,1.5,0,3.91,1.4,7.45,3.88,10.1-31.91,38.22-25.51,52.22,11.46,34.62,1.93,3.29,4.48,5.34,6.35,6.5,3.03,1.87,6.6,2.85,10.35,2.85,2.83,0,5.83-.56,8.93-1.65,1.55-.55,3.32-1.41,5.58-2.72,1.98-1.15,3.82-2.57,5.49-4.23.23-.23.45-.5.68-.74,1.18.26,2.39.44,3.64.44,2.05,0,4.17-.36,6.47-1.14,1.85-.65,3.57-1.51,5.16-2.56,1.51-.05,3.03-.3,4.63-.77.23-.07.46-.14.68-.22,2.03-.72,3.9-1.65,5.63-2.74.25.01.48.05.73.05,1.84,0,3.74-.34,5.61-1.01,2.92-1.04,5.55-2.47,7.89-4.29,1.81-.05,3.66-.42,5.62-1.12,2.52-.9,4.74-2.06,6.66-3.49.18,0,.54,0,.55,0,1.94,0,3.87-.35,5.95-1.08,1.9-.68,3.71-1.61,5.46-2.73.24.01.47.05.71.05,1.84,0,3.74-.34,5.6-1.01,2.92-1.03,5.56-2.46,7.9-4.29,1.81-.05,3.64-.42,5.62-1.12,2.51-.9,4.74-2.06,6.66-3.49.18,0,.56,0,.56,0,1.93,0,3.93-.36,5.93-1.08,2.57-.91,5.01-2.25,7.28-3.98.1,0,.21.02.31.02,2.08,0,4.2-.39,6.44-1.2,2.79-.99,5.35-2.41,7.66-4.17.49.05.98.11,1.48.11,1.94,0,3.9-.35,5.85-1.04,2.73-.97,5.2-2.45,7.37-4.4,1.98-1.79,3.57-3.76,4.72-5.86.82-1.49,1.5-3.06,2.02-4.62.52-1.54.85-2.8,1.04-3.92.2-1.18.31-2.4.31-3.61,0-3.61-1.33-7.04-3.78-9.76,0-.27.01-.53.02-.79,4.29-4.65,5.32-9.32,5.32-12.74ZM206.9,57.64c2.24-2.49,3.97-5.18,5.15-7.99.92-2.18,1.69-4.69,2.3-7.47.65-2.96.97-5.43.97-7.56,0-3.97-.52-7.55-1.53-10.71.41-.22.81-.44,1.21-.66,7.01-3.23,25.72-13.15,32.2-7.64,3.96,7.58-9.32,23.24-14.01,29.7-8.53,10.49-17.5,20.62-26.82,30.43-.52-5.9-3.13-9.65-5.6-11.93,0-.35-.02-.71-.05-1.18,2.29-1.28,4.36-2.95,6.19-4.98ZM180.66,28.8c2.09-1.9,3.86-3.08,5.4-3.63.82-.29,1.37-.09,1.68.13.52.37.83,1.07.93,2.14.12-.2.27-.41.43-.65.28-.41.84-.98,1.7-1.76.87-.78,1.97-1.41,3.26-1.87,1.34-.48,2.67-.5,3.93-.08,1.28.43,2.28,1.3,2.96,2.57,1.19,2.21,1.79,5.23,1.79,8.98,0,1.18-.23,2.82-.67,4.85-.45,2.03-.99,3.81-1.61,5.29-.64,1.51-1.62,3.01-2.92,4.46-1.32,1.48-2.89,2.54-4.66,3.17-.98.35-1.89.51-2.69.47-.86-.04-1.44-.19-1.8-.47l-.29-.13s-.03.1-.05.18c-.1,1.79-.16,3.64-.16,5.41s.05,3.17.14,4.17c.1,1.06.15,1.69.15,1.97,0,1.36-.49,2.59-1.47,3.67-2.08,2.44-4.66,4.22-7.65,5.29-.38.13-.71.2-1.01.2-.33,0-.61-.08-.84-.25-.41-.29-.61-.78-.61-1.47l.18-1.15c1.04-3.25,1.82-6.75,2.33-10.47.51-3.74.82-6.96.91-9.57.1-2.64.15-5.28.15-7.86s-.02-4.28-.06-5.09c-.14-1.55-.8-1.68-1.05-1.73l-.47-.15c-.95-.5-1.13-1.14-1.13-1.59,0-1.44,1.05-3.08,3.2-5.04ZM182.88,93.06c.52.32,1.29.3,2.29-.06,1.05-.38,2.02-1.21,2.89-2.47,1.02-1.48,1.91-2.35,2.75-2.64,1.16-.41,1.88,0,2.28.42.53.56.79,1.43.79,2.68,0,1.16-.3,2.44-.88,3.79-.58,1.34-1.28,2.46-2.09,3.34-.79.85-1.69,1.64-2.68,2.33-1.45,1.05-3.02,1.87-4.65,2.45-1.16.41-2.28.62-3.35.62-.47,0-.94-.04-1.39-.12-1.51-.27-2.71-.96-3.56-2.06-1.57-2.08-2.36-4.74-2.36-7.9s.39-5.97,1.17-8.54c.79-2.59,2.15-5.06,4.05-7.34,1.92-2.3,4.22-3.94,6.86-4.88,2.69-.95,4.85-1.03,6.43-.21,1.63.85,2.46,2.68,2.46,5.44s-1.1,5.31-3.27,7.81c-2.14,2.47-4.88,4.31-8.15,5.47-.3.11-.32.24-.32.39,0,.7.24,1.16.74,1.47ZM154.11,38.15c1.99-1.72,3.49-2.75,4.61-3.15,1.25-.44,2.09-.46,2.62-.06.52.4.77,1.18.77,2.47,0,1.08-.1,2.84-.29,5.23-.24,2.92-.29,3.93-.29,4.25,0,3.32.63,4.26,1.01,4.53.15.11.42.23.95.04,1.09-.39,1.86-1.89,2.29-4.45.19-1,.28-2.08.28-3.23,0-2.19-.18-3.78-.55-4.73-.48-.46-.72-.99-.72-1.6,0-1.3.92-2.66,2.8-4.16,1.77-1.4,3.36-2.36,4.73-2.85.88-.31,1.55-.3,2.04.05.45.32.69.88.69,1.68,0,1.29-.13,3.36-.37,6.15-.25,2.73-.37,4.91-.37,6.5s.02,2.64.06,3.28c.03.57.23,1.43.58,2.54.29.92.67,1.48,1.07,1.58,1.26.12,1.4,1.01,1.4,1.39,0,.6-.18,1.21-.54,1.81-1.48,2.49-3.85,4.33-7.03,5.46-1.27.37-2.18.36-2.82-.02-.44-.26-.72-.67-.84-1.23l-.29-1.24c-1.44,2.99-3.64,5.02-6.52,6.05-.82.28-1.57.42-2.26.42-.87,0-1.63-.23-2.26-.68-1.49-1.07-2.21-3.29-2.21-6.79l.17-9.07c0-1.01-.09-1.87-.27-2.55h0c-.16-.61-.4-1.04-.7-1.28-.53-.42-.81-1.01-.81-1.69,0-1.33,1-2.85,3.07-4.63ZM160.89,77.39c-.19-1.58-.85-1.8-1.06-1.87l-.4-.13c-.72-.22-1.13-.79-1.13-1.59,0-1.4,1.13-3.06,3.44-5.07,2.24-1.95,3.97-3.12,5.27-3.58.91-.33,1.6-.31,2.11.05.47.33.7.92.7,1.74,0,2.2-.13,5.1-.37,8.64-.25,3.52-.37,7.28-.37,11.17s.05,7.2.14,9.72c.09,2.31.63,3.65,1.61,3.98.47.1,1.36.5,1.36,1.9,0,.93-.54,1.94-1.65,3.08-1.9,1.93-4.06,3.33-6.43,4.18-.59.21-1.1.31-1.56.31-.38,0-.72-.07-1.02-.22-.5-.24-.86-.67-1.07-1.28-.14-.57-.2-1.21-.2-1.98,0-.73.03-1.58.09-2.53.06-.95.12-2.17.2-3.68.34-6.76.52-12.13.52-15.95,0-4.74-.09-6.36-.17-6.88ZM142.92,124.71c.1,1.05.15,1.71.15,1.97,0,1.36-.49,2.59-1.46,3.67-2.08,2.44-4.65,4.22-7.65,5.29-.38.14-.72.2-1.01.2-.33,0-.61-.08-.84-.25-.41-.29-.61-.78-.61-1.47l.18-1.15c1.04-3.26,1.82-6.75,2.33-10.47.51-3.74.82-6.96.92-9.57.1-2.62.14-5.26.14-7.86s-.02-4.29-.06-5.09c-.14-1.55-.8-1.68-1.05-1.73l-.47-.15c-.95-.5-1.13-1.14-1.13-1.59,0-1.44,1.05-3.09,3.2-5.04,2.09-1.89,3.85-3.08,5.4-3.63.82-.29,1.37-.09,1.68.13.52.37.83,1.07.93,2.14.12-.2.27-.41.43-.65.28-.41.84-.99,1.7-1.76.87-.78,1.97-1.41,3.26-1.87,1.34-.47,2.66-.5,3.93-.08,1.29.43,2.28,1.3,2.96,2.57,1.19,2.21,1.79,5.24,1.79,8.97,0,1.18-.23,2.81-.67,4.85-.45,2.03-.99,3.81-1.61,5.29-.64,1.51-1.62,3.01-2.92,4.47-1.32,1.47-2.89,2.54-4.66,3.17-.99.35-1.89.51-2.69.47-.86-.04-1.44-.19-1.8-.47l-.28-.13s-.03.1-.05.18c-.1,1.79-.16,3.64-.16,5.42s.05,3.19.14,4.17ZM127.4,120.62c-1.82,2.21-3.88,3.74-6.11,4.53-1.53.54-2.89.82-4.08.82-.56,0-1.08-.06-1.56-.18-1.54-.39-2.72-1.23-3.53-2.49-1.54-2.28-2.33-5.06-2.33-8.27,0-3.69.89-7.52,2.64-11.37.86-1.94,2.08-3.72,3.62-5.29,1.55-1.59,3.33-2.74,5.28-3.43,3.58-1.27,6.34-.7,8.24,1.68,1.82,2.29,2.74,5.56,2.74,9.74,0,5.47-1.65,10.27-4.9,14.26ZM135.28,39.71c2.12-2.03,4.04-4.67,5.76-7.93.62-1.03,1.39-1.7,2.32-2.03.68-.25,1.26-.2,1.73.13.65.46.97,1.43.97,2.98l-.11,2.73c0,.67.13.83.13.83.31-.07.7-.16,1.09-.3.41-.15,1.03-.41,1.86-.77.59-.21,1.05-.18,1.4.07.39.28.59.77.59,1.51,0,2.1-1.45,4.17-4.43,6.33-.28.21-.48.53-.6.98-.21,2.23-.33,4.92-.33,7.92s.11,4.9.33,5.73c.06.24.18.72,1.43.47.37-.13.82-.06,1.2.23.56.44.85.99.85,1.63,0,.5-.04.99-.12,1.47-.08.49-.27,1.16-.57,2.05-.29.88-.68,1.75-1.13,2.59-.47.85-1.17,1.71-2.1,2.54-.94.84-2.01,1.48-3.18,1.9-.57.2-1.11.31-1.61.31-1.41,0-2.51-.81-3.22-2.41-.34-.82-.51-1.86-.51-3.11l.46-15.12c0-1.75-.1-3.17-.31-4.21-.17-.88-.79-1.54-1.87-2.02-.75-.26-1.16-.89-1.16-1.78,0-.8.38-1.68,1.15-2.7ZM117.42,51.2c1.97-1.84,3.53-2.94,4.77-3.38.75-.27,1.37-.25,1.85.04.46.28.75.8.85,1.55.11.56.18,1.04.21,1.44l.15-.3c.1-.21.33-.61.69-1.18.36-.57.75-1.1,1.15-1.54,1.04-1.26,2.24-2.15,3.57-2.62.91-.33,1.83-.38,2.73-.16,1.77.42,2.67,2.11,2.67,5.02,0,1.74-.37,3.4-1.09,4.94-.75,1.6-1.98,2.71-3.65,3.3-1.13.41-2.03.39-2.66-.07-.63-.45-.95-1.28-.95-2.49l.06-.89s0-.08,0-.11c-.02,0-.03.01-.06.02-1.75.62-2.68,3.75-2.68,9.05,0,1.46.15,3.87.46,7.17l.12,1.35c0,1.41-.5,2.62-1.48,3.63-1.55,1.58-3.54,2.82-5.91,3.66-.5.18-.93.27-1.3.27s-.7-.09-.97-.28c-.44-.31-.66-.83-.66-1.56l.18-1.1c.91-4.65,1.37-10.18,1.37-16.44,0-2.45-1.02-2.82-1.39-2.94-.39-.11-1.03-.45-1.03-1.58,0-1.32.99-2.88,3.03-4.78ZM91.34,75.39c.47-1.46,1.08-2.74,1.79-3.81.7-1.04,1.54-2.06,2.48-3.02.94-.96,1.83-1.74,2.67-2.32.8-.56,1.65-1.1,2.52-1.6,1.09-.59,1.87-.98,2.38-1.18l.38-.61c-.03-.21-.09-.35-.2-.42-.14-.1-.59-.26-1.9.2-1.78.64-3.25,1.5-4.38,2.56-.51.51-1.04.87-1.58,1.06-.57.21-1.05.17-1.43-.1-.47-.33-.69-.96-.69-1.93,0-3.69,2.99-6.62,8.89-8.71,4.67-1.66,7.67-1.13,8.92,1.59.54,1.17.8,2.86.8,5.19l-.17,7.79c0,4.11.75,4.34.78,4.35.78.3,1.17.9,1.17,1.72,0,1.24-.78,2.61-2.38,4.18-1.53,1.5-3.12,2.55-4.72,3.12-.92.33-1.62.37-2.15.12-.58-.27-.9-.74-.9-1.33,0-.11,0-.2,0-.28-.04.05-.08.1-.12.16-.47.62-1.14,1.29-2.04,2.06-.91.77-2.08,1.41-3.45,1.9-.9.32-1.75.48-2.53.48-.46,0-.89-.05-1.31-.16,0,0,0,0,0,0-1.18-.31-2.01-.99-2.46-2.01-.72-1.47-1.08-3-1.08-4.52s.24-3,.72-4.47ZM96.91,123.61c.52.32,1.29.3,2.29-.06,1.05-.37,2.02-1.2,2.89-2.47,1.02-1.48,1.91-2.35,2.75-2.64,1.16-.41,1.88,0,2.29.43.53.56.79,1.43.79,2.68,0,1.16-.3,2.44-.88,3.79-.58,1.34-1.28,2.46-2.09,3.33-.79.85-1.69,1.64-2.68,2.33-1.45,1.05-3.02,1.87-4.65,2.45-1.16.41-2.28.62-3.36.62-.47,0-.94-.04-1.39-.12-1.51-.27-2.71-.97-3.56-2.06-1.57-2.08-2.36-4.74-2.36-7.9s.39-5.97,1.17-8.54c.79-2.59,2.15-5.06,4.05-7.34,1.91-2.3,4.22-3.94,6.86-4.88,2.69-.96,4.85-1.03,6.43-.21,1.63.85,2.46,2.68,2.46,5.44s-1.1,5.3-3.27,7.81c-2.14,2.47-4.88,4.31-8.15,5.47-.3.11-.32.24-.32.39,0,.7.24,1.16.74,1.47ZM74.51,61.31c2.11-2.02,4.03-4.67,5.76-7.93.62-1.03,1.39-1.7,2.32-2.03.68-.25,1.26-.2,1.73.13.65.46.97,1.43.97,2.97l-.11,2.73c0,.67.13.83.13.83.31-.07.7-.16,1.09-.3.41-.15,1.03-.4,1.86-.77.59-.21,1.05-.18,1.4.07.39.28.59.77.59,1.51,0,2.07-1.49,4.19-4.43,6.33-.28.21-.47.53-.6.98-.21,2.23-.33,4.93-.33,7.92s.11,4.9.33,5.73c.06.25.17.72,1.42.47.38-.13.83-.06,1.2.23.56.44.84.99.84,1.63,0,.5-.04.99-.12,1.47-.08.49-.27,1.16-.57,2.05-.3.88-.68,1.75-1.13,2.59-.47.86-1.18,1.71-2.1,2.54-.93.84-2,1.48-3.18,1.89-.57.21-1.11.31-1.61.31-1.41,0-2.51-.81-3.22-2.4-.34-.82-.51-1.87-.51-3.12l.46-15.11c0-1.75-.1-3.17-.31-4.21-.17-.88-.79-1.55-1.87-2.02-.75-.26-1.16-.9-1.16-1.79,0-.8.38-1.68,1.15-2.7ZM52.76,99.88c-2.1-1.3-3.17-3.6-3.17-6.82,0-1.78.45-3.63,1.35-5.5.92-1.94,2.14-3.18,3.62-3.71.81-.29,1.35-.06,1.66.19.42.33.66.94.75,1.9.07.73.23,1.41.48,2.02.29.71.53,1.01.69,1.13.25.2.51.32.81.39.4.05.78.02,1.08-.08.85-.3,1.49-.81,1.96-1.55.48-.74.72-1.61.72-2.57s-.32-1.88-.99-2.82c-.7-.97-1.54-1.85-2.51-2.62l-3.08-2.43c-2.62-2.06-3.95-4.49-3.95-7.21,0-3.45,1.22-6.58,3.62-9.3,2.37-2.68,5.44-4.7,9.12-6.01,2.16-.77,3.71-.9,4.72-.39,1.08.54,1.6,1.84,1.6,3.95s-.69,3.44-2.04,3.92c-.46.17-1.04.21-1.76.16-.55-.05-1.2.06-1.93.32-.69.25-1.26.72-1.74,1.44-.48.74-.71,1.5-.71,2.34s.3,1.57.91,2.3c.66.79,1.47,1.53,2.42,2.19,1.01.71,2.03,1.52,3.04,2.39,1.05.91,1.95,2.19,2.67,3.79.72,1.59,1.08,3.44,1.08,5.5s-.27,3.92-.8,5.63c-.53,1.72-1.26,3.2-2.16,4.4-.88,1.18-1.77,2.22-2.64,3.09-.89.89-1.87,1.65-2.91,2.25-1.55.89-2.69,1.47-3.49,1.75-1.74.62-3.32.93-4.71.93s-2.68-.33-3.73-.98ZM66.06,165.98c-1.71,3.58-2.58,7.26-2.58,10.94s.78,6.91,1.94,9.41c-35.19,17.5-39.94,4.41-9.91-32.28.45.42.93.81,1.44,1.17,2.41,1.71,5.26,2.61,8.26,2.61.4,0,.81-.08,1.22-.11.31,1.72.81,3.39,1.55,4.98-.68.97-1.32,2.06-1.91,3.28ZM74.34,135.23c.21.87.3,1.43.3,1.78,0,1.52-1,3.08-3.05,4.77-1.94,1.6-3.68,2.67-5.17,3.21-.46.16-.87.25-1.22.25-.38,0-.7-.1-.97-.29-.47-.33-.7-.91-.7-1.72l.12-1c.91-6.86,1.38-13.9,1.38-20.91l-.29-8.87c0-.85-.26-1.54-.81-2.14-.73-.8-1.09-1.62-1.09-2.42,0-1.36.86-2.82,2.63-4.44,1.66-1.53,3.47-2.85,5.4-3.93,1.95-1.09,3.42-1.81,4.52-2.2,1.06-.38,1.98-.67,2.73-.86.77-.19,1.86-.35,3.23-.46,1.41-.12,2.68-.04,3.78.24,1.16.29,2.18,1.02,3.04,2.18.86,1.15,1.29,2.85,1.29,5.05s-.49,4.47-1.45,6.87c-.96,2.39-2.14,4.46-3.51,6.16h0c-2.75,3.37-5.3,5.85-7.6,7.38l-1.44.95c-.38.34-.74.79-.99,1.29-.25.5-.42,1.07-.49,1.7.1,5.17.27,6.89.39,7.41ZM98.88,172.3c-.53,1.72-1.26,3.2-2.16,4.4-.88,1.18-1.77,2.22-2.64,3.09-.9.9-1.88,1.65-2.91,2.25-1.51.87-2.69,1.46-3.49,1.75-1.74.62-3.31.93-4.71.93s-2.68-.33-3.74-.98c-2.1-1.3-3.17-3.6-3.17-6.82,0-1.78.45-3.63,1.35-5.5.92-1.93,2.14-3.18,3.62-3.71.81-.29,1.35-.06,1.66.19.41.33.66.95.75,1.9.07.74.23,1.41.48,2.02.29.71.54,1.01.69,1.13.24.19.51.32.81.39.4.05.78.02,1.07-.08.85-.3,1.49-.81,1.96-1.55.48-.74.72-1.61.72-2.57s-.32-1.88-.99-2.82c-.7-.97-1.54-1.85-2.51-2.62l-3.08-2.43c-2.62-2.06-3.95-4.49-3.95-7.21,0-3.45,1.22-6.58,3.62-9.3,2.37-2.68,5.44-4.7,9.12-6.01,2.16-.77,3.71-.9,4.72-.39,1.08.54,1.6,1.83,1.6,3.95s-.69,3.44-2.04,3.92c-.46.16-1.04.21-1.76.16-.55-.05-1.2.06-1.93.32-.7.25-1.26.72-1.73,1.44-.48.74-.71,1.5-.71,2.34s.3,1.57.91,2.3c.65.79,1.47,1.52,2.42,2.19,1,.7,2.02,1.51,3.04,2.39,1.05.92,1.95,2.19,2.67,3.79.72,1.59,1.08,3.44,1.08,5.5s-.27,3.92-.8,5.63ZM127.05,166.39c-1.48,2.5-3.85,4.34-7.03,5.47-1.27.37-2.18.36-2.82-.02-.44-.26-.72-.67-.84-1.23l-.29-1.24c-1.44,2.99-3.64,5.02-6.52,6.05-.82.28-1.57.42-2.25.42-.87,0-1.63-.23-2.26-.68-1.49-1.07-2.21-3.29-2.21-6.79l.17-9.07c0-1.01-.09-1.87-.27-2.55-.16-.61-.4-1.04-.7-1.28-.53-.42-.81-1-.81-1.69,0-1.33,1-2.85,3.07-4.63,1.99-1.72,3.5-2.75,4.61-3.15,1.25-.44,2.08-.46,2.62-.06.52.4.77,1.19.77,2.47,0,1.09-.09,2.8-.29,5.23-.24,2.92-.29,3.92-.29,4.25,0,3.32.63,4.26,1.01,4.53.15.1.42.23.95.04,1.09-.39,1.86-1.88,2.29-4.45.19-1.01.28-2.09.28-3.23,0-2.19-.18-3.78-.55-4.72-.47-.45-.72-1-.72-1.6,0-1.3.92-2.66,2.8-4.16,1.77-1.4,3.36-2.36,4.73-2.85.88-.31,1.55-.3,2.04.05.45.32.68.89.68,1.69,0,1.29-.13,3.35-.38,6.15-.25,2.76-.37,4.95-.37,6.5s.02,2.66.06,3.28c.03.58.23,1.43.58,2.54.28.9.65,1.45,1.04,1.57,1.29.15,1.43,1.02,1.43,1.39,0,.6-.18,1.21-.54,1.81ZM163.75,155.02c-1.6,1.46-3.32,2.53-5.11,3.17-1.21.43-2.13.46-2.79.1-.48-.26-.79-.71-.93-1.32-.06-.23-.13-.75-.13-2.64l.34-8.97c.04-.4.06-.89.06-1.5,0-2.76-.53-3.43-.76-3.59-.06-.04-.23-.16-.63-.02-.77.27-1.35.93-1.77,2.01-.46,1.16-.7,2.19-.74,3.07-.04.93-.06,2.12-.06,3.55s.03,2.68.08,3.71c.06,1.04.12,1.86.2,2.47.08.66.12,1.07.12,1.22,0,1.24-.54,2.48-1.61,3.67-1.03,1.15-2.56,2.09-4.54,2.8-1.41.5-2.35.53-2.96.1-.29-.2-.63-.61-.63-1.39l.24-1.45c.53-2.57.8-6.59.8-11.97,0-2.73-.54-3.4-.77-3.57-.1-.07-.29-.15-.67-.02-.81.29-1.42.95-1.86,2.02-.47,1.14-.71,2.21-.71,3.17l-.11,4.22c0,2.55.06,4.33.17,5.27.12,1.05.18,1.64.18,1.92,0,1.37-.5,2.57-1.48,3.58-1.51,1.54-3.42,2.72-5.68,3.52-.53.19-1,.29-1.4.29s-.74-.1-1.02-.29c-.45-.32-.69-.87-.69-1.62l.12-1c.99-4.86,1.49-10.72,1.49-17.45,0-.47-.1-.86-.3-1.15-.2-.29-.54-.52-1-.68-.67-.34-1-.87-1-1.52,0-1.36,1.06-2.98,3.23-4.94,2.11-1.9,3.74-3.04,4.99-3.49.77-.27,1.39-.25,1.85.05.45.3.71.84.76,1.6.04.27.08.57.11.88.54-.86,1.36-1.77,2.45-2.72,1.26-1.1,2.51-1.88,3.72-2.31,1.53-.54,2.81-.58,3.81-.1.71.34,1.26.92,1.66,1.74,1.49-2.9,3.8-4.94,6.84-6.02,1.42-.51,2.61-.52,3.52-.05.83.43,1.41,1.24,1.74,2.42.47,1.65.71,3.74.71,6.23l-.29,7.18c0,1.71.26,3.81,1.49,4.01.92.14,1.45.74,1.45,1.64,0,1.25-.82,2.61-2.51,4.15ZM202.18,141.35c-1.6,1.47-3.32,2.53-5.11,3.17-1.21.43-2.13.46-2.79.1-.48-.26-.79-.71-.93-1.33-.06-.23-.13-.75-.13-2.64l.34-8.97c.04-.4.06-.89.06-1.5,0-2.76-.53-3.43-.76-3.59-.06-.04-.22-.16-.63-.02-.77.27-1.35.93-1.77,2.01-.45,1.16-.7,2.19-.74,3.07-.04.93-.06,2.11-.06,3.55s.03,2.67.09,3.72c.06,1.04.12,1.86.2,2.47.08.66.12,1.07.12,1.22,0,1.24-.54,2.48-1.61,3.67-1.04,1.15-2.56,2.09-4.54,2.8-1.41.5-2.35.53-2.96.1-.29-.2-.63-.61-.63-1.39l.24-1.45c.53-2.57.8-6.6.8-11.96,0-2.73-.54-3.4-.77-3.57-.1-.07-.29-.15-.67-.02-.81.29-1.42.95-1.86,2.02-.47,1.14-.71,2.2-.71,3.16l-.12,4.22c0,2.53.06,4.3.17,5.27.12,1.01.17,1.63.17,1.92,0,1.37-.5,2.57-1.48,3.58-1.52,1.54-3.43,2.72-5.68,3.52-.53.19-1,.29-1.4.29s-.74-.1-1.02-.29c-.45-.32-.69-.87-.69-1.62l.12-1c.99-4.85,1.49-10.71,1.49-17.45,0-.47-.1-.86-.3-1.15-.2-.29-.53-.51-.99-.68-.67-.34-1-.87-1-1.52,0-1.36,1.06-2.98,3.23-4.94,2.11-1.9,3.74-3.04,4.99-3.48.77-.28,1.39-.25,1.85.05.45.3.71.84.76,1.6.04.27.08.57.11.88.54-.85,1.36-1.77,2.45-2.72,1.25-1.1,2.5-1.87,3.72-2.31,1.53-.54,2.81-.57,3.81-.1.7.34,1.26.92,1.66,1.74,1.5-2.9,3.81-4.94,6.84-6.02,1.43-.51,2.61-.52,3.52-.05.83.43,1.41,1.24,1.74,2.42.47,1.65.71,3.74.71,6.23l-.29,7.18c0,1.71.26,3.81,1.48,4.01.92.14,1.45.74,1.45,1.64,0,1.25-.82,2.61-2.51,4.15ZM216.04,136.52c-1.44,1.24-3.1,2.2-4.92,2.84-.89.32-1.63.47-2.23.47-.52,0-.95-.12-1.28-.35-.49-.35-.74-.91-.74-1.67,0-.07,0-.15.18-1.41.53-3.13.8-6.54.8-10.15l-.17-5.42c0-.5-.11-.89-.33-1.21-.24-.34-.54-.61-.93-.82-.64-.34-.98-.89-.98-1.58,0-1.44,1.04-3.03,3.19-4.84,2.07-1.75,3.77-2.85,5.21-3.36.88-.31,1.59-.3,2.09.04.47.33.73.9.75,1.72,0,.96-.09,2.68-.26,5.12-.17,2.42-.26,4.67-.26,6.69,0,5.83.67,7.69,1.13,8.29.67.21,1.06.78,1.06,1.6,0,1.39-.77,2.75-2.3,4.06ZM229.71,121.39c.06.24.17.71,1.39.47.43-.14.86-.06,1.23.22.56.44.85,1,.85,1.63,0,.5-.04.99-.12,1.47-.08.48-.27,1.17-.57,2.05-.29.88-.68,1.76-1.13,2.59-.47.85-1.17,1.71-2.1,2.55-.93.84-2,1.47-3.18,1.9-.57.2-1.11.31-1.61.31-1.41,0-2.51-.81-3.23-2.4-.34-.82-.51-1.87-.51-3.12l.46-15.11c0-1.76-.1-3.18-.3-4.21-.18-.89-.8-1.55-1.89-2.03-.72-.24-1.14-.88-1.14-1.78,0-.8.38-1.68,1.15-2.7,2.12-2.03,4.04-4.67,5.76-7.93.62-1.03,1.39-1.7,2.32-2.03.68-.25,1.26-.2,1.73.13.65.46.97,1.43.97,2.98l-.11,2.73c0,.67.13.83.13.83.31-.07.7-.16,1.08-.3.41-.15,1.03-.4,1.86-.77.59-.21,1.05-.18,1.4.07.39.28.59.77.59,1.51,0,2.07-1.49,4.2-4.43,6.33-.28.21-.47.53-.59.98-.21,2.22-.33,4.92-.33,7.92s.11,4.9.33,5.73Z"/>
    <path class="cls-2" d="M185.89,81.08c.18-.46.31-.95.38-1.47-.02-.61-.2-.79-.26-.82-.04-.03-.11-.04-.19-.04-.11,0-.26.03-.43.09-1.05.38-1.84,1.15-2.42,2.35-.6,1.27-1,2.66-1.18,4.13,2.08-.91,3.42-2.29,4.1-4.23Z"/>
    <path class="cls-2" d="M146.18,104.97c.78-.28,1.45-.96,1.99-2.02.57-1.11.86-2.45.86-3.96s-.31-2.67-.93-3.53c-.47-.66-.91-.84-1.29-.84-.18,0-.34.04-.49.09-.78.28-1.44.96-1.96,2.03-.55,1.13-.83,2.46-.83,3.96s.31,2.65.91,3.52c.68.97,1.29.91,1.75.75Z"/>
  </g>
  <path class="cls-3" d="M251.28,60.18l1.04,3.77c.49,1.78,2.2,2.93,4.04,2.73l4.36-.49-4.3,2.65c-2.07,1.28-3.55,3.33-4.1,5.7l-1.04,4.53-1.04-3.77c-.49-1.78-2.2-2.93-4.04-2.73l-4.36.49,4.3-2.65c2.07-1.28,3.55-3.33,4.1-5.7l1.04-4.53Z"/>
  <path class="cls-2" d="M12.59,75.62l1.68,6.05c.49,1.78,2.2,2.93,4.04,2.73l6.88-.77-6.82,4.2c-2.07,1.28-3.55,3.33-4.1,5.7l-1.68,7.27-1.68-6.05c-.49-1.78-2.2-2.93-4.04-2.73l-6.88.77,6.82-4.2c2.07-1.28,3.55-3.33,4.1-5.7l1.68-7.27Z"/>
  <path class="cls-1" d="M272.83,118.41l1.28,4.63c.49,1.78,2.2,2.93,4.04,2.73l5.31-.59-5.25,3.23c-2.07,1.28-3.55,3.33-4.1,5.7l-1.28,5.56-1.28-4.63c-.49-1.78-2.2-2.93-4.04-2.73l-5.31.59,5.25-3.23c2.07-1.28,3.55-3.33,4.1-5.7l1.28-5.56Z"/>
  <path class="cls-2" d="M208.89,160.04l.7,2.51c.33,1.19,1.47,1.96,2.69,1.82l2.91-.33-2.87,1.77c-1.38.85-2.37,2.22-2.73,3.8l-.7,3.02-.7-2.51c-.33-1.19-1.47-1.96-2.69-1.82l-2.91.33,2.87-1.77c1.38-.85,2.37-2.22,2.73-3.8l.7-3.02Z"/>
  <path class="cls-2" d="M265.39,75.59l.35,1.26c.16.59.73.98,1.35.91l1.45-.16-1.43.88c-.69.43-1.18,1.11-1.37,1.9l-.35,1.51-.35-1.26c-.16-.59-.73-.98-1.35-.91l-1.45.16,1.43-.88c.69-.43,1.18-1.11,1.37-1.9l.35-1.51Z"/>
  <path class="cls-3" d="M22.59,65.63l.35,1.26c.16.59.73.98,1.35.91l1.45-.16-1.43.88c-.69.43-1.18,1.11-1.37,1.9l-.35,1.51-.35-1.26c-.16-.59-.73-.98-1.35-.91l-1.45.16,1.43-.88c.69-.43,1.18-1.11,1.37-1.9l.35-1.51Z"/>
  <path class="cls-2" d="M94.17,19.36l.7,2.51c.33,1.19,1.47,1.96,2.69,1.82l2.91-.33-2.87,1.77c-1.38.85-2.37,2.22-2.73,3.8l-.7,3.02-.7-2.51c-.33-1.19-1.47-1.96-2.69-1.82l-2.91.33,2.87-1.77c1.38-.85,2.37-2.22,2.73-3.8l.7-3.02Z"/>
  <g>
    <path class="cls-3" d="M198.46.39l.67,5.03c.02.13.1.25.21.31l4.41,2.51c.3.17.28.6-.03.75l-4.57,2.19c-.12.06-.21.17-.23.3l-1.02,4.97c-.07.34-.49.46-.72.21l-3.5-3.67c-.09-.1-.22-.14-.36-.13l-5.04.56c-.34.04-.58-.32-.42-.62l2.41-4.46c.06-.12.07-.26.01-.38l-2.09-4.62c-.14-.31.13-.66.46-.59l4.99.91c.13.02.27-.01.36-.1l3.75-3.42c.25-.23.66-.08.71.26Z"/>
    <path class="cls-2" d="M197.17,16.79c-.4,0-.8-.16-1.08-.46l-2.64-2.77c-.09-.09-.2-.12-.33-.12l-3.8.43c-.53.07-1.1-.18-1.41-.65-.31-.46-.34-1.06-.08-1.55l1.82-3.36c.06-.11.06-.23.01-.35l-1.58-3.48c-.23-.51-.16-1.1.18-1.54.34-.44.91-.65,1.45-.55l3.76.69c.12.02.24-.01.33-.1l2.82-2.58c.42-.38,1.01-.49,1.52-.3.53.19.9.65.98,1.21l.51,3.79c.02.12.09.23.19.29l3.33,1.89c.49.28.77.79.76,1.35-.02.56-.34,1.06-.85,1.3l-3.45,1.65c-.11.05-.19.15-.21.27l-.77,3.74c-.11.55-.51.98-1.05,1.14-.14.04-.28.06-.42.06ZM193.16,12.32c.41,0,.81.17,1.09.47l2.63,2.77c.15.15.32.13.39.11.07-.02.23-.09.27-.29l.77-3.75c.1-.46.39-.84.82-1.05l3.45-1.65c.19-.09.22-.27.22-.34,0-.07-.01-.25-.2-.35l-3.33-1.89c-.4-.23-.68-.64-.74-1.1l-.51-3.79c-.03-.21-.19-.29-.25-.31-.07-.02-.24-.07-.4.08l-2.82,2.58c-.35.31-.83.46-1.28.37l-3.76-.69c-.21-.04-.33.09-.38.14-.04.06-.13.21-.05.4l1.58,3.48c.19.42.17.92-.05,1.33l-1.82,3.36c-.1.19-.02.34.02.4s.13.19.37.17l3.8-.43c.05,0,.11-.01.16-.01Z"/>
  </g>
  <g>
    <path class="cls-1" d="M47.48,108.6l2.99,2.73c.1.09.23.13.36.1l3.98-.73c.34-.06.61.28.46.59l-1.67,3.68c-.05.12-.05.26.01.38l1.92,3.56c.16.3-.08.66-.42.62l-4.02-.45c-.13-.01-.26.03-.36.13l-2.79,2.93c-.24.25-.66.13-.72-.21l-.81-3.96c-.03-.13-.11-.24-.23-.3l-3.65-1.75c-.31-.15-.32-.58-.03-.75l3.52-2c.12-.07.19-.18.21-.31l.54-4.01c.05-.34.45-.49.71-.26Z"/>
    <path class="cls-2" d="M47.95,122.28c-.14,0-.28-.02-.41-.06-.54-.15-.94-.59-1.06-1.14l-.56-2.74c-.02-.12-.1-.22-.21-.27l-2.52-1.21c-.51-.24-.83-.74-.85-1.3-.02-.56.27-1.08.76-1.35l2.43-1.38c.11-.06.18-.17.2-.29l.37-2.77c.08-.56.45-1.02.98-1.21.52-.19,1.11-.07,1.52.3l2.06,1.88c.09.08.22.12.33.1l2.75-.51c.56-.1,1.11.11,1.45.55.34.44.41,1.03.18,1.54l-1.15,2.55c-.05.11-.05.24.01.34l1.33,2.46c.27.49.24,1.09-.08,1.55s-.85.71-1.41.65l-2.78-.31c-.12,0-.24.03-.32.12l-1.93,2.02c-.29.3-.68.47-1.08.47ZM47.58,109.58c-.06,0-.11.01-.14.02-.07.02-.23.1-.25.31l-.37,2.77c-.07.46-.34.88-.75,1.11l-2.43,1.38c-.19.1-.2.28-.2.35,0,.07.03.25.22.34l2.52,1.21c.42.2.73.6.82,1.05l.56,2.74c.04.21.21.28.27.29.07.02.24.05.39-.11l1.93-2.02c.32-.34.79-.51,1.25-.46l2.78.31c.2,0,.33-.11.36-.17s.12-.22.02-.4l-1.33-2.46c-.22-.41-.24-.9-.05-1.33l1.15-2.55c.09-.19,0-.34-.05-.4-.04-.05-.17-.18-.38-.14l-2.75.51c-.47.08-.94-.05-1.28-.37l-2.06-1.88c-.09-.08-.18-.1-.25-.1Z"/>
  </g>
  <path class="cls-3" d="M211.2,94.44l1.8,2.79c.09.15.27.22.44.19l3.74-.73c.38-.07.65.35.43.67l-2.87,3.98c-.07.09-.09.2-.08.31l.64,4.09c.04.28-.19.52-.48.49l-3.87-.51c-.12-.02-.24.02-.33.1l-3.62,3.11c-.3.26-.75,0-.7-.38l.56-3.99c.02-.16-.05-.32-.19-.41l-2.78-1.83c-.27-.18-.25-.58.03-.73l4.32-2.3c.08-.04.15-.12.19-.2l2.01-4.58c.14-.31.56-.34.75-.06Z"/>
  <g>
    <circle class="cls-3" cx="224.84" cy="17.14" r="3.67"/>
    <path class="cls-2" d="M224.84,21.36c-2.33,0-4.23-1.9-4.23-4.22s1.9-4.22,4.23-4.22,4.22,1.9,4.22,4.22-1.9,4.22-4.22,4.22ZM224.84,14.02c-1.72,0-3.12,1.4-3.12,3.11s1.4,3.11,3.12,3.11,3.11-1.4,3.11-3.11-1.4-3.11-3.11-3.11Z"/>
  </g>
  <g>
    <circle class="cls-2" cx="232.18" cy="50.32" r="6.3"/>
    <path class="cls-2" d="M232.18,57.17c-3.78,0-6.85-3.07-6.85-6.85s3.07-6.85,6.85-6.85,6.85,3.07,6.85,6.85-3.07,6.85-6.85,6.85ZM232.18,44.58c-3.16,0-5.74,2.57-5.74,5.74s2.57,5.74,5.74,5.74,5.74-2.57,5.74-5.74-2.57-5.74-5.74-5.74Z"/>
  </g>
  <g>
    <circle class="cls-2" cx="48.99" cy="161.39" r="1.57"/>
    <path class="cls-2" d="M48.99,163.52c-1.17,0-2.13-.96-2.13-2.13s.95-2.13,2.13-2.13,2.13.96,2.13,2.13-.96,2.13-2.13,2.13ZM48.99,160.38c-.56,0-1.02.46-1.02,1.02s.46,1.02,1.02,1.02,1.02-.46,1.02-1.02-.46-1.02-1.02-1.02Z"/>
  </g>
  <g>
    <circle class="cls-3" cx="50.57" cy="193.15" r="4.72"/>
    <path class="cls-2" d="M50.57,198.43c-2.91,0-5.28-2.37-5.28-5.28s2.37-5.28,5.28-5.28,5.28,2.37,5.28,5.28-2.37,5.28-5.28,5.28ZM50.57,188.98c-2.3,0-4.17,1.87-4.17,4.17s1.87,4.17,4.17,4.17,4.17-1.87,4.17-4.17-1.87-4.17-4.17-4.17Z"/>
  </g>
</svg>