<svg width="145" height="35" viewBox="0 0 145 35" fill="none" xmlns="http://www.w3.org/2000/svg">
    <g clip-path="url(#clip0_4535_58717)">
        <path
            d="M102.437 9.99316C103.395 9.99316 104.348 10.2264 105.295 10.6924C106.241 11.1594 106.972 11.8002 107.486 12.6162V10.4121H111.309L111.378 26.8486V26.8496C111.378 28.2253 111.173 29.4024 110.765 30.3818C110.355 31.3612 109.777 32.1655 109.029 32.7959C108.281 33.4253 107.369 33.8917 106.294 34.1953C105.218 34.4979 103.991 34.6504 102.612 34.6504H101.275V31.0469H102.576C104.119 31.0469 105.323 30.8773 106.188 30.1895C107.053 29.5015 107.486 28.3879 107.486 26.8496V24.5088C106.972 25.3247 106.241 25.9657 105.295 26.4316C104.348 26.8977 103.395 27.1309 102.437 27.1309C101.197 27.1308 100.063 26.9041 99.0361 26.4492C98.0077 25.9943 97.1248 25.371 96.3887 24.5781C95.6525 23.7853 95.0794 22.8764 94.6709 21.8496C94.2614 20.8239 94.0567 19.7284 94.0566 18.5625C94.0566 17.3964 94.2614 16.3299 94.6709 15.292C95.0794 14.255 95.6525 13.3387 96.3887 12.5459C97.1248 11.7531 98.0068 11.1297 99.0361 10.6748C100.064 10.22 101.198 9.99322 102.437 9.99316ZM123.788 18.8418C123.788 19.5417 123.846 20.1946 123.963 20.8008C124.079 21.4067 124.272 21.9259 124.541 22.3564C124.81 22.7882 125.173 23.1325 125.629 23.3887C126.085 23.6447 126.651 23.7734 127.329 23.7734C128.662 23.7734 129.649 23.3006 130.292 22.3564C130.935 21.4124 131.257 20.2407 131.257 18.8418V10.4121H135.078V26.8486C135.078 28.2244 134.873 29.4015 134.465 30.3809C134.056 31.3603 133.478 32.1655 132.729 32.7949C131.981 33.4243 131.069 33.8907 129.994 34.1943C128.918 34.4969 127.692 34.6494 126.312 34.6494H124.976V31.0459H126.276C127.819 31.0459 129.024 30.8764 129.889 30.1885C130.753 29.5005 131.187 28.3879 131.187 26.8486V24.5527C130.678 25.3819 129.989 26.0135 129.117 26.4482C128.206 26.9032 127.119 27.1299 125.927 27.1299C124.735 27.1299 123.736 26.9325 122.929 26.5361C122.122 26.1397 121.485 25.6036 121.018 24.9268C120.62 24.3205 120.345 23.6449 120.193 22.8984C120.042 22.152 119.966 21.2201 119.966 20.1006V10.4121H123.788V18.8418ZM24.2949 22.9443C24.2484 24.2888 23.9785 25.5772 23.5225 26.7734H17.6309L21.6172 30.0654C20.7961 31.0721 19.8151 31.9427 18.7129 32.6387L14.2227 28.9297V34.334C13.5978 34.4348 12.9569 34.4873 12.3037 34.4873C11.6506 34.4873 11.0096 34.4338 10.3848 34.334V28.9297L5.89453 32.6387C4.79128 31.9417 3.81034 31.0711 2.99023 30.0654L6.97656 26.7734H1.08496C0.628938 25.5772 0.360065 24.2888 0.3125 22.9443H24.2949ZM65.1963 9.99316C66.5058 9.99318 67.6911 10.2199 68.7559 10.6748C69.8196 11.1297 70.7308 11.7541 71.4912 12.5459C72.2506 13.3387 72.8346 14.2551 73.2441 15.292C73.6527 16.3299 73.8584 17.4206 73.8584 18.5625C73.8584 19.7042 73.6526 20.8249 73.2441 21.8496C72.8346 22.8754 72.2506 23.7854 71.4912 24.5781C70.7318 25.3709 69.8196 25.9943 68.7559 26.4492C67.6921 26.9041 66.5058 27.1308 65.1963 27.1309C63.8869 27.1309 62.7069 26.904 61.6553 26.4492C60.6037 25.9943 59.7034 25.3709 58.9551 24.5781C58.2068 23.7853 57.6283 22.8764 57.2197 21.8496C56.8102 20.8239 56.6055 19.7284 56.6055 18.5625C56.6055 17.3964 56.8102 16.3299 57.2197 15.292C57.6283 14.255 58.2068 13.3387 58.9551 12.5459C59.7033 11.7532 60.6037 11.1297 61.6553 10.6748C62.7068 10.22 63.887 9.99316 65.1963 9.99316ZM83.9219 9.99316C85.2312 9.99316 86.4167 10.22 87.4814 10.6748C88.5451 11.1297 89.4564 11.7543 90.2168 12.5459C90.9762 13.3387 91.5612 14.255 91.9707 15.292C92.3792 16.3299 92.585 17.4207 92.585 18.5625C92.5849 19.7042 92.3792 20.8249 91.9707 21.8496C91.5612 22.8754 90.9762 23.7853 90.2168 24.5781C89.4574 25.3708 88.5451 25.9943 87.4814 26.4492C86.4177 26.904 85.2313 27.1309 83.9219 27.1309C82.6125 27.1308 81.4324 26.9041 80.3809 26.4492C79.3292 25.9943 78.4289 25.3709 77.6807 24.5781C76.9324 23.7853 76.3538 22.8764 75.9453 21.8496C75.5358 20.8239 75.3321 19.7284 75.332 18.5625C75.332 17.3965 75.5358 16.3299 75.9453 15.292C76.3539 14.255 76.9324 13.3387 77.6807 12.5459C78.429 11.7531 79.3292 11.1297 80.3809 10.6748C81.4324 10.2199 82.6125 9.99322 83.9219 9.99316ZM40.9658 13.876C41.3379 13.7066 41.7356 13.5624 42.1582 13.4424C42.9803 13.2114 43.8916 13.0672 44.8916 13.0127C45.1989 12.9956 45.5154 12.9873 45.8398 12.9873H46.1934C47.7364 12.9873 48.9401 12.8598 49.8047 12.1719C50.6367 11.5092 51.0692 10.4531 51.0996 9.00293V2.72266H55.1328V26.7119H51.0996V15.7441C50.7275 15.9136 50.3308 16.0578 49.9092 16.1768C49.0871 16.4077 48.1757 16.552 47.1768 16.6064C46.8685 16.6236 46.553 16.6318 46.2275 16.6318H45.875C44.332 16.6318 43.1283 16.7585 42.2637 17.4463C41.4082 18.1272 40.9749 19.2252 40.9658 20.7393V26.7119H36.9346V2.72266H40.9658V13.876ZM117.584 26.7119H113.762V2.72266H117.584V26.7119ZM65.1963 13.3857C64.4723 13.3857 63.8169 13.5254 63.2324 13.8047C62.6479 14.0841 62.1453 14.4578 61.7246 14.9248C61.3039 15.3918 60.9822 15.9399 60.7598 16.5693C60.5374 17.1987 60.4268 17.8636 60.4268 18.5625C60.4268 19.2614 60.5373 19.9263 60.7598 20.5557C60.9812 21.1849 61.3031 21.7333 61.7246 22.1992C62.1453 22.6662 62.6479 23.0389 63.2324 23.3193C63.8169 23.5987 64.4713 23.7393 65.1963 23.7393C65.9201 23.7392 66.5813 23.5986 67.1768 23.3193C67.7724 23.0399 68.2815 22.6662 68.7021 22.1992C69.1226 21.7333 69.45 21.1848 69.6836 20.5557C69.9171 19.9263 70.0351 19.2614 70.0352 18.5625C70.0352 17.8636 69.9171 17.1987 69.6836 16.5693C69.45 15.9399 69.1228 15.3918 68.7021 14.9248C68.2815 14.4588 67.7724 14.0851 67.1768 13.8047C66.5813 13.5254 65.9201 13.3858 65.1963 13.3857ZM83.9219 13.3857C83.1982 13.3858 82.5432 13.5255 81.959 13.8047C81.3746 14.0841 80.8718 14.4579 80.4512 14.9248C80.0305 15.3918 79.7088 15.9399 79.4863 16.5693C79.2639 17.1987 79.1533 17.8636 79.1533 18.5625C79.1534 19.2614 79.2639 19.9263 79.4863 20.5557C79.7078 21.1849 80.0296 21.7333 80.4512 22.1992C80.8718 22.6662 81.3745 23.0389 81.959 23.3193C82.5432 23.5986 83.1972 23.7392 83.9219 23.7393C84.6459 23.7393 85.3077 23.5987 85.9033 23.3193C86.4989 23.0399 87.008 22.6662 87.4287 22.1992C87.8492 21.7334 88.1766 21.1848 88.4102 20.5557C88.6437 19.9263 88.7607 19.2614 88.7607 18.5625C88.7607 17.8636 88.6437 17.1987 88.4102 16.5693C88.1766 15.94 87.8493 15.3918 87.4287 14.9248C87.008 14.4588 86.4989 14.0851 85.9033 13.8047C85.3078 13.5253 84.6458 13.3857 83.9219 13.3857ZM102.647 13.3857C101.923 13.3857 101.268 13.5254 100.684 13.8047C100.099 14.0841 99.5965 14.4578 99.1758 14.9248C98.7551 15.3918 98.4334 15.9399 98.2109 16.5693C97.9886 17.1987 97.8779 17.8636 97.8779 18.5625C97.878 19.2614 97.9885 19.9263 98.2109 20.5557C98.4324 21.1849 98.7542 21.7333 99.1758 22.1992C99.5965 22.6662 100.099 23.0389 100.684 23.3193C101.268 23.5987 101.922 23.7393 102.647 23.7393C103.372 23.7392 104.032 23.5986 104.628 23.3193C105.224 23.0399 105.733 22.6662 106.153 22.1992C106.574 21.7333 106.901 21.1848 107.135 20.5557C107.368 19.9263 107.486 19.2614 107.486 18.5625C107.486 17.8636 107.368 17.1987 107.135 16.5693C106.901 15.9399 106.574 15.3918 106.153 14.9248C105.733 14.4588 105.224 14.0851 104.628 13.8047C104.032 13.5254 103.371 13.3858 102.647 13.3857ZM13.3281 0.676758C13.647 0.877325 21.1143 5.65249 21.1143 12.502C21.1142 17.157 17.1616 20.9433 12.3037 20.9434V20.9424C7.44478 20.9424 3.49322 17.1561 3.49316 12.501C3.49316 9.75537 4.8224 6.91786 7.44336 4.06836C9.28543 2.06578 11.1238 0.781562 11.208 0.723633L12.252 0L13.3281 0.676758ZM12.3398 4.68457C10.3497 6.34493 7.33105 9.50416 7.33105 12.502C7.3311 15.0449 9.56229 17.1143 12.3037 17.1143C15.0451 17.1142 17.2753 15.0458 17.2754 12.502C17.2754 10.1234 15.7186 7.96428 14.4121 6.57227C13.6719 5.78354 12.9212 5.14047 12.3408 4.68457H12.3398Z"
            fill="#23221F" />
    </g>
    <defs>
        <clipPath id="clip0_4535_58717">
            <rect width="144.375" height="34.65" fill="white" transform="translate(0.3125)" />
        </clipPath>
    </defs>
</svg>
    