<svg width="25" height="25" viewBox="0 0 25 25" fill="none" xmlns="http://www.w3.org/2000/svg">
  <path
    d="M18.6585 7.66C18.5985 7.65 18.5285 7.65 18.4685 7.66C17.0885 7.61 15.9885 6.48 15.9885 5.08C15.9885 3.65 17.1385 2.5 18.5685 2.5C19.9985 2.5 21.1485 3.66 21.1485 5.08C21.1385 6.48 20.0385 7.61 18.6585 7.66Z"
    stroke="#FFF2EF" stroke-width="1.5" stroke-linecap="round" stroke-linejoin="round" />
  <path
    d="M17.6285 14.94C18.9985 15.17 20.5085 14.93 21.5685 14.22C22.9785 13.28 22.9785 11.74 21.5685 10.8C20.4985 10.09 18.9685 9.85003 17.5985 10.09"
    stroke="#FFF2EF" stroke-width="1.5" stroke-linecap="round" stroke-linejoin="round" />
  <path
    d="M6.62867 7.66C6.68867 7.65 6.75867 7.65 6.81867 7.66C8.19867 7.61 9.29867 6.48 9.29867 5.08C9.29867 3.65 8.14867 2.5 6.71867 2.5C5.28867 2.5 4.13867 3.66 4.13867 5.08C4.14867 6.48 5.24867 7.61 6.62867 7.66Z"
    stroke="#FFF2EF" stroke-width="1.5" stroke-linecap="round" stroke-linejoin="round" />
  <path
    d="M7.65863 14.94C6.28863 15.17 4.77863 14.93 3.71863 14.22C2.30863 13.28 2.30863 11.74 3.71863 10.8C4.78863 10.09 6.31863 9.85003 7.68863 10.09"
    stroke="#FFF2EF" stroke-width="1.5" stroke-linecap="round" stroke-linejoin="round" />
  <path
    d="M12.6585 15.13C12.5985 15.12 12.5285 15.12 12.4685 15.13C11.0885 15.08 9.98853 13.95 9.98853 12.55C9.98853 11.12 11.1385 9.96997 12.5685 9.96997C13.9985 9.96997 15.1485 11.13 15.1485 12.55C15.1385 13.95 14.0385 15.09 12.6585 15.13Z"
    stroke="#FFF2EF" stroke-width="1.5" stroke-linecap="round" stroke-linejoin="round" />
  <path
    d="M9.74854 18.28C8.33854 19.22 8.33854 20.76 9.74854 21.7C11.3485 22.77 13.9685 22.77 15.5685 21.7C16.9785 20.76 16.9785 19.22 15.5685 18.28C13.9785 17.22 11.3485 17.22 9.74854 18.28Z"
    stroke="#FFF2EF" stroke-width="1.5" stroke-linecap="round" stroke-linejoin="round" />
</svg>